PathFileType	4	(X/Y/Z)	Kaydara	
DataRate	CameraRate	NumFrames	NumMarkers	Units	OrigDataRate	OrigDataStartFrame	OrigNumFrames	
60.00	60.00	4	74	mm	60.00	429	98	
Frame#	Time	Y_rasi			Y_rpsi			Y_lpsi			Y_fneck			Y_bneck			Y_fhead			Y_rhead			Y_rshld			Y_relbtop			Y_relbext			Y_relblow			Y_rwrext			Y_rwrtop			Y_rwrlow			Y_lshld			Y_lelbext			Y_lelblow			Y_lelbtop			Y_lwrext			Y_lwrtop			Y_lwrlow			Y_rtopleg			Y_ltopleg			Y_rkneefr			Y_rkneebk			Y_rkneeis			Y_lkneefr			Y_lknssbk			Y_lkneeis			Y_rankfr			Y_rankis			Y_rankbk			Y_lankfr			Y_lankbk			Y_lankis			Y_lhead			Y_lasi			D_rpsi			D_lpsi			D_fneck			D_bneck			D_fhead			D_rhead			D_lhead			D_rshld			D_relbtop			D_relbext			D_relblow			D_rwrext			D_rwrtop			D_rwrlow			D_lshld			D_lelbext			D_lelblow			D_lelbtop			D_lwrext			D_lwrtop			D_lwrlow			D_rtopleg			D_ltopleg			D_rkneefr			D_rkneebk			D_rkneeis			D_lkneefr			D_lknssbk			D_lkneeis			D_rankfr			D_rankis			D_rankbk			D_lankfr			D_lankbk			D_lankis			D_lasi			D_rasi			
		X1	Y1	Z1	X2	Y2	Z2	X3	Y3	Z3	X4	Y4	Z4	X5	Y5	Z5	X6	Y6	Z6	X7	Y7	Z7	X8	Y8	Z8	X9	Y9	Z9	X10	Y10	Z10	X11	Y11	Z11	X12	Y12	Z12	X13	Y13	Z13	X14	Y14	Z14	X15	Y15	Z15	X16	Y16	Z16	X17	Y17	Z17	X18	Y18	Z18	X19	Y19	Z19	X20	Y20	Z20	X21	Y21	Z21	X22	Y22	Z22	X23	Y23	Z23	X24	Y24	Z24	X25	Y25	Z25	X26	Y26	Z26	X27	Y27	Z27	X28	Y28	Z28	X29	Y29	Z29	X30	Y30	Z30	X31	Y31	Z31	X32	Y32	Z32	X33	Y33	Z33	X34	Y34	Z34	X35	Y35	Z35	X36	Y36	Z36	X37	Y37	Z37	X38	Y38	Z38	X39	Y39	Z39	X40	Y40	Z40	X41	Y41	Z41	X42	Y42	Z42	X43	Y43	Z43	X44	Y44	Z44	X45	Y45	Z45	X46	Y46	Z46	X47	Y47	Z47	X48	Y48	Z48	X49	Y49	Z49	X50	Y50	Z50	X51	Y51	Z51	X52	Y52	Z52	X53	Y53	Z53	X54	Y54	Z54	X55	Y55	Z55	X56	Y56	Z56	X57	Y57	Z57	X58	Y58	Z58	X59	Y59	Z59	X60	Y60	Z60	X61	Y61	Z61	X62	Y62	Z62	X63	Y63	Z63	X64	Y64	Z64	X65	Y65	Z65	X66	Y66	Z66	X67	Y67	Z67	X68	Y68	Z68	X69	Y69	Z69	X70	Y70	Z70	X71	Y71	Z71	X72	Y72	Z72	X73	Y73	Z73	X74	Y74	Z74	

62	7.133	-548.53714	1084.81377	-129.05625	-542.61063	1073.59039	-307.19357	-316.08023	1064.56879	-234.24696	-465.56515	1437.29050	-142.51603	-378.87226	1484.31061	-218.81336	-515.83622	1641.21063	-85.35398	-469.68929	1577.86240	-246.57591	-599.72004	1426.41052	-271.17512	-638.06492	1113.05550	-313.00093	-643.93845	1130.90981	-369.46320	-577.13364	1110.19745	-370.51834	-679.93546	853.16483	-304.64382	-712.25388	869.78065	-282.10279	-695.37338	882.44865	-242.46315	-243.00581	1383.95691	-93.89821	-172.26530	1074.22348	-146.50572	-222.41167	1063.65753	-176.06472	-220.16464	1082.58736	-103.52547	-248.77975	831.25916	-68.62406	-244.83028	843.15536	-26.49753	-286.24594	862.78702	-21.90236	-614.10774	915.12711	-274.21253	-280.81774	906.33171	-128.59693	-630.89718	413.67264	-279.60211	-607.27013	457.07176	-354.46056	-535.61413	417.59274	-268.09877	-328.45821	475.24845	-119.49530	-263.67035	495.92121	-211.36635	-384.49627	470.94944	-198.07846	-629.87156	142.71338	-329.13479	-559.22371	133.44389	-340.71106	-600.13073	137.05503	-394.79374	-274.18644	132.00534	-170.78848	-257.23621	129.81707	-238.83486	-331.20914	127.68190	-208.12468	-359.64363	1571.17447	-139.96277	-398.94653	1072.91801	-79.11467	-931.69060	1179.30153	618.37902	-1079.03572	1194.45587	520.07420	-916.45294	1616.66214	476.59668	-1000.91286	1660.89417	557.12788	-889.35997	1803.39737	351.03477	-913.63907	1810.04272	528.88832	-1038.98148	1796.24069	442.06360	-806.73546	1573.89755	599.16763	-781.85974	1203.64006	571.32591	-720.88631	1214.89365	596.78192	-772.62001	1199.34753	655.28687	-711.47728	929.24637	516.61285	-700.64178	943.98460	478.23666	-742.62863	954.17015	456.82468	-1151.42197	1564.69467	431.12164	-1169.23843	1193.83873	359.82727	-1143.63876	1171.57623	429.57359	-1105.78285	1200.58846	359.16000	-1108.87566	949.76723	311.78787	-1084.98177	969.74876	278.54723	-1045.33417	970.03525	306.66933	-823.26309	1036.96838	605.38589	-1112.49634	1035.46883	405.56263	-825.88074	560.33672	491.01387	-832.18170	560.22884	603.85864	-935.91972	547.71339	532.02072	-1011.78230	472.47284	384.35863	-1099.32701	518.56739	440.56023	-1007.92648	500.39806	498.15693	-834.66446	192.46103	553.52165	-910.59174	186.81938	539.60423	-882.55188	183.03377	620.87532	-1057.83745	163.55467	416.51733	-1076.51031	153.75798	492.67925	-994.05418	165.21622	449.27494	-1000.49477	1194.89563	374.66133	-823.74283	1184.52736	479.15443 
63	7.150	-548.11958	1084.83681	-128.77637	-542.02168	1073.54958	-306.87117	-315.59603	1064.50699	-233.71248	-464.94690	1437.44049	-142.39606	-378.13675	1484.22150	-218.66934	-515.19619	1641.51596	-85.94769	-468.87642	1577.70447	-246.75037	-598.93345	1426.32828	-271.19083	-637.10575	1112.88124	-312.49937	-643.26881	1130.65994	-368.95020	-576.50478	1109.95377	-369.97189	-679.07448	853.00240	-303.81432	-711.31760	869.53011	-281.15923	-694.44160	882.18765	-241.64873	-242.41272	1383.89343	-93.43487	-172.39672	1073.76732	-145.41286	-222.68000	1063.28850	-174.89483	-219.70509	1082.77153	-102.27012	-249.22445	831.09886	-67.20412	-245.45519	843.09380	-24.91072	-286.84593	862.89658	-20.22794	-613.58261	915.21065	-273.91844	-280.60059	906.17676	-127.87503	-630.57758	413.75847	-279.65269	-606.68869	457.15500	-354.52965	-535.22873	417.57519	-267.99543	-328.25981	475.19161	-119.41974	-263.36494	495.88387	-211.10668	-384.04007	470.92319	-198.01809	-629.77699	142.79306	-329.13399	-559.22466	133.44025	-340.60413	-599.98768	137.07659	-394.75655	-274.19273	132.06297	-170.71136	-257.31989	129.73755	-238.67537	-331.13602	127.69682	-208.09610	-358.91689	1571.31577	-140.20550	-398.73772	1072.84523	-78.70969	-931.78642	1179.30115	617.94392	-1079.25476	1194.41803	519.61407	-916.91856	1616.46347	476.16898	-1001.24763	1660.87494	556.65401	-889.02885	1803.07571	350.51571	-913.88916	1809.92325	527.90474	-1038.91006	1796.14487	440.90694	-806.85951	1573.94241	598.52043	-782.47124	1203.58452	570.35992	-721.70425	1214.79179	596.26934	-773.52928	1199.38782	654.50645	-711.95229	928.88870	516.84620	-701.08047	943.52272	478.47229	-742.98828	953.67508	456.88248	-1151.91986	1564.58557	430.89085	-1169.72481	1193.64799	360.02094	-1143.79997	1171.42365	429.73728	-1106.05995	1200.40337	359.93534	-1109.27124	949.57344	312.08654	-1085.52361	969.51721	278.79105	-1045.82855	969.99329	306.54295	-823.28552	1037.57896	605.25978	-1112.62909	1035.37621	405.14835	-825.79849	560.24216	490.47241	-832.03003	560.26035	603.19855	-935.89607	548.07720	531.85196	-1011.80077	472.44370	383.88329	-1099.33830	518.55568	440.13988	-1007.88002	500.35782	497.67426	-834.63654	192.44461	553.35087	-910.55084	186.81591	539.42154	-882.52090	183.16017	620.71423	-1057.86255	163.51128	416.39133	-1076.50398	153.77240	492.59430	-994.05525	165.20121	449.19273	-1000.78644	1194.70482	374.21597	-823.80478	1184.63593	478.45741 
64	7.167	-547.77336	1084.88724	-128.49071	-541.45191	1073.54111	-306.54896	-315.12650	1064.44115	-233.17608	-464.37859	1437.63977	-142.43650	-377.44694	1484.20135	-218.48803	-514.57436	1641.90826	-86.58483	-467.96402	1577.49680	-247.30747	-598.19996	1426.22223	-271.30625	-636.24969	1112.63100	-312.02112	-642.38991	1130.37766	-368.49632	-575.47253	1109.66568	-369.55750	-678.17154	852.74734	-303.29016	-710.53230	869.36012	-280.72693	-693.46138	881.88858	-241.20029	-241.91980	1383.80768	-92.92026	-172.59724	1073.44498	-144.20219	-222.86602	1063.02078	-173.75414	-219.81659	1082.62123	-101.12906	-249.41652	830.86952	-66.20781	-245.65357	842.87498	-23.80944	-286.73321	862.46216	-19.08358	-613.07018	915.36972	-273.69970	-280.12613	906.11397	-127.37812	-630.27382	413.81344	-279.75363	-606.17107	457.22092	-354.58286	-535.14610	417.50301	-267.82902	-327.94270	474.92012	-119.40607	-263.13900	495.89634	-210.85199	-383.66970	470.71926	-197.90821	-629.71741	142.86674	-329.17629	-559.12342	133.44946	-340.58090	-599.86694	137.10218	-394.74861	-274.51599	132.26492	-170.42030	-257.26965	129.73345	-238.60235	-331.09364	127.74096	-208.04234	-358.52531	1571.36887	-140.04616	-398.45627	1072.79518	-78.40781	-932.02789	1179.27002	617.55745	-1078.28354	1193.45848	518.59547	-917.24953	1616.36673	475.89306	-1001.53755	1660.86502	556.08570	-888.95737	1802.95547	349.58389	-914.05693	1809.80240	527.14069	-1038.75229	1796.03424	439.80934	-807.05605	1573.94241	597.98958	-782.65610	1203.48045	569.49730	-722.28004	1214.62990	595.65239	-774.50882	1199.35257	653.65097	-712.51862	928.41904	517.19170	-701.50963	942.87460	478.66772	-743.44963	952.99995	457.03625	-1152.24319	1564.56757	430.49549	-1170.10719	1193.46802	360.13844	-1144.02443	1171.35925	429.89941	-1106.22498	1200.31883	360.40005	-1109.70863	949.38530	312.50381	-1085.98557	969.24225	279.22592	-1046.40419	969.91425	306.12803	-823.29826	1036.92055	604.61784	-1112.66846	1035.28664	404.72282	-825.62210	560.22533	489.79744	-831.85493	560.29732	602.50366	-935.56213	547.77851	530.97942	-1011.74179	472.39746	383.61351	-1099.27879	518.53004	439.78035	-1007.83958	500.35553	497.35050	-834.58328	192.45296	553.12054	-910.50247	186.78616	539.24690	-882.47452	183.26035	620.52696	-1057.83836	163.48469	416.31012	-1076.51100	153.81131	492.50595	-993.96637	165.31933	449.10500	-1001.07925	1194.81644	373.81336	-823.58406	1184.62997	477.85667 
65	7.183	-547.40692	1084.91478	-128.23880	-540.96516	1073.54584	-306.24172	-314.49497	1064.42284	-232.72617	-463.57620	1437.85568	-142.40464	-376.74004	1483.97018	-218.60678	-513.80836	1642.28546	-87.32330	-467.08172	1577.35794	-247.56084	-597.57549	1426.10397	-271.32227	-635.45856	1112.44209	-311.75238	-641.43936	1130.06592	-368.23246	-574.64611	1109.49471	-369.05338	-677.17911	852.49046	-302.94569	-709.41872	868.97316	-280.36043	-692.56683	881.57997	-240.76782	-241.47812	1383.85651	-92.53716	-172.75204	1073.25203	-143.05504	-222.98151	1062.91466	-172.60124	-220.05745	1082.43568	-99.95167	-249.27004	830.63080	-65.66216	-245.53389	842.43927	-23.10760	-286.74074	862.09290	-18.29288	-612.54589	915.27390	-273.56365	-279.87303	906.06079	-126.76167	-629.94831	413.86845	-279.88506	-605.72407	457.28966	-354.69254	-534.77962	417.55165	-267.90060	-328.06969	474.81377	-118.95801	-262.91718	495.95493	-210.64333	-383.11394	470.69263	-198.09923	-629.65538	142.91969	-329.21337	-559.07814	133.43414	-340.56644	-599.77760	137.12361	-394.73335	-274.28186	132.06107	-170.59748	-257.19673	129.77538	-238.57983	-331.03336	127.77285	-207.99631	-357.76928	1571.49643	-140.07680	-398.16391	1072.77763	-77.77098	-932.26891	1179.22066	617.02557	-1078.62366	1193.41774	518.18943	-917.38068	1616.41663	475.57770	-1001.74324	1660.85556	555.46070	-888.69942	1802.94800	348.81489	-914.24606	1809.67133	526.51798	-1038.81218	1795.88608	438.86421	-807.23923	1573.95004	597.49447	-783.40752	1203.30002	569.05224	-722.61406	1214.44023	595.23743	-774.99573	1199.30931	653.11272	-712.96471	927.98706	517.48085	-702.07840	942.35489	479.01012	-744.01207	952.36038	457.20997	-1152.42050	1564.55307	429.96353	-1170.39993	1193.36967	360.21324	-1144.28314	1171.39374	429.99908	-1107.11105	1200.57159	358.73199	-1110.21584	949.21074	313.03350	-1086.41624	968.91823	279.68773	-1046.79993	969.40155	307.17085	-823.31673	1037.68417	604.77203	-1112.79320	1035.25108	404.26888	-825.43213	560.21709	489.18316	-831.65001	560.32761	601.93687	-935.52597	547.99931	530.60661	-1011.66649	472.37404	383.25565	-1099.22630	518.52406	439.44527	-1007.78839	500.41885	497.05097	-834.51057	192.38529	552.84588	-910.42984	186.77837	539.02447	-882.41997	183.34759	620.32642	-1057.78038	163.44286	416.24626	-1076.52611	153.86108	492.43439	-993.61435	165.44786	448.96526	-1001.34308	1194.79713	373.34248	-823.84026	1184.69696	477.59071 
